# xmcd
#
# Track frame offsets: 
#        150
#        2900
#        19190
#        37157
#        57395
#        79262
#        98530
#        119157
#        141640
#        166040
#        180572
#        209167
#        230310
#        248547
#
# Disc length: 3524 seconds
#
# Revision: 1
# Processed by: cddbd v1.5.2PL0 Copyright (c) Steve Scherf et al.
# Submitted via: ExactAudioCopyFreeDBPlugin 1.0
#
DISCID=c20dc20e
DTITLE=Jack Ingram - Live Wherever You Are
DYEAR=2005
DGENRE=Country
TTITLE0=Hello
TTITLE1=Wherever You Are (Studio Track)
TTITLE2=I Would
TTITLE3=How Many Days
TTITLE4=Work This Out
TTITLE5=One Thing
TTITLE6=Only Daddy That'll Walk The Line
TTITLE7=Biloxi
TTITLE8=Mustang Burn
TTITLE9=Happy Happy (Country Country)
TTITLE10=Barbie Doll
TTITLE11=Goodnight Moon
TTITLE12=Jack Ingram Feat. Danielle Peck - Never Knocked Me Down
TTITLE13=Love You (Studio Track)
EXTD=
EXTT0=
EXTT1=
EXTT2=
EXTT3=
EXTT4=
EXTT5=
EXTT6=
EXTT7=
EXTT8=
EXTT9=
EXTT10=
EXTT11=
EXTT12=
EXTT13=
PLAYORDER=
